<svg width="426" height="425" viewBox="0 0 426 425" xmlns="http://www.w3.org/2000/svg">
  <path d="M287.8 137.82C333.56 92.62 378.31 45.6 424.95 1.8c.12 46.4.01 92.8.05 139.2H285v-1h1v-1h1v-1zm-145.88 4.29.93.01c46.56 47.11 93.66 93.7 140.39 140.65-47.07.49-94.15.16-141.22.18-.1-46.95.1-93.89-.1-140.84" fill="#ff5167"/>
  <path d="M1.09 2.86C48.47 48.74 93.87 97.3 141.92 142.11c.2 46.95 0 93.89.1 140.84l-.88-.01C96.1 237.29 50.57 192.11 5.18 146.8L5 146H4v-1H3v-1H2v-1H1c.06-46.71-.12-93.42.09-140.14M285 141h140v1h-1l-.03.96c-45.76 44.83-90.83 90.54-136.17 135.86l-.8.18v1h-1v1l-.93-.03-.09.93-.94.26-.14 1.05-.66-.44c-46.73-46.95-93.83-93.54-140.39-140.65 47.38-.28 94.76-.04 142.15-.12z" fill="#ffae85"/>
  <path d="M1 143h1v1h1v1h1v1h1l.18.8c45.39 45.31 90.92 90.49 135.96 136.14-46.74.18-93.48-.05-140.21.11C1.1 236.37.95 189.68 1 143m145.8 276.82c45.34-45.32 90.41-91.03 136.17-135.86l.99-.13c.11 46.77-.04 93.54.08 140.3-47.01-.3-94.02-.06-141.03-.12L143 423h1v-1h1v-1h1v-1z" fill="#b60065"/>
  <path d="M287.8 278.82c45.34-45.32 90.41-91.03 136.17-135.86l.99-.13c.04 46.72.1 93.43-.03 140.14-46.67.05-93.34.03-140.02.01l.07-1.08.09-.93.93.03v-1h1v-1zm-145.78 4.13c47.07-.02 94.15.31 141.22-.18l-.27 1.19c-45.76 44.83-90.83 90.54-136.17 135.86l-.8.18v1h-1v1h-1v1h-1l.01 1.01-.93.01c-.18-47.03-.04-94.05-.06-141.07" fill="#00003c"/>
  <path d="m284.04 282.16.94-.26-.07 1.08c46.68.02 93.35.04 140.02-.01l-.03.83c-47.21 46.52-93.55 93.93-140.86 140.33-.12-46.76.03-93.53-.08-140.3l-.99.13.27-1.19.66.44zm-283.11.89c46.73-.16 93.47.07 140.21-.11l.88.01c.02 47.02-.12 94.04.06 141.07l-.88-.2C94.63 376.72 47.26 330.34.93 283.05m141.15 140.97.93-.01c47.01.06 94.02-.18 141.03.12l.13.87H141.85z" fill="#46015a"/>
</svg>
